<svg width="665" height="786" viewBox="0 0 665 786" fill="none" xmlns="http://www.w3.org/2000/svg">
<path d="M83.5 212.526L37.5 258.026L248 273.526L355.5 315.526L492 416.026L579 418.526L573.5 281.026L565.5 205.526L535.5 122.026L487 71.5258L438 42.5258L395.5 25.5258L349.5 17.0258H299.5L227.5 33.5258L164 73.5258L112 136.026L83.5 212.526Z" fill="#41723B"/>
<path opacity="0.991" fill-rule="evenodd" clip-rule="evenodd" d="M307 0.525773C377.138 -3.47523 440.138 15.3588 496 57.0258C540.636 95.0998 568.136 143.267 578.5 201.526C583.563 229.633 585.729 257.967 585 286.526C585.083 306.386 584.416 326.22 583 346.026C582.772 365.557 587.605 383.724 597.5 400.526C601.845 413.516 598.012 423.016 586 429.026C553.815 438.097 521.982 436.93 490.5 425.526C489.236 480.403 505.236 529.736 538.5 573.526C550.299 586.993 562.466 600.16 575 613.026C604.54 637.574 633.04 663.407 660.5 690.526C667.583 702.295 664.583 709.962 651.5 713.526C646.984 712.519 643.151 710.353 640 707.026C631.667 698.693 623.333 690.359 615 682.026C594 663.693 573 645.359 552 627.026C518.704 595.717 494.204 558.55 478.5 515.526C470.985 492.101 466.818 468.101 466 443.526C464.192 443.517 462.525 444.017 461 445.026C444.953 456.733 429.787 469.566 415.5 483.526C413.979 501.754 408.646 518.754 399.5 534.526C398.551 536.162 395.413 538.755 394 539.526C388.5 542.526 384.189 542.847 378.5 545.526C366.914 565.037 354.58 584.037 341.5 602.526C320.919 626.515 298.919 627.848 275.5 606.526C269.946 597.106 269.612 587.439 274.5 577.526C287.94 554.757 302.94 533.091 319.5 512.526C320 511.526 320.5 510.526 321 509.526C319.459 501.649 320.293 493.982 323.5 486.526C326.076 475.769 330.743 466.103 337.5 457.526C344.722 420.194 348.056 382.528 347.5 344.526C347.975 332.632 343.141 323.799 333 318.026C308.721 304.82 283.054 295.153 256 289.026C208.077 276.977 159.411 271.643 110 273.026C104.358 280.94 100.858 289.773 99.5 299.526C97.779 307.505 97.612 315.505 99 323.526C114.063 322.634 127.729 326.467 140 335.026C150.364 344.882 166 350.026 176.5 358.026C181 361.454 180 367.026 175 370.026C166.157 374.948 157.157 379.614 148 384.026C143.228 392.46 138.062 400.626 132.5 408.526C127.403 414.462 121.569 419.462 115 423.526C153.246 442.672 172.58 473.839 173 517.026C172.786 528.621 171.619 540.121 169.5 551.526C165.241 568.304 160.574 584.97 155.5 601.526C141.889 637.083 128.555 672.75 115.5 708.526C108.989 730.43 106.323 752.763 107.5 775.526C105.881 781.973 101.715 785.306 95 785.526C89.681 784.953 85.847 782.286 83.5 777.526C80.217 753.777 82.217 730.444 89.5 707.526C91.632 700.131 93.965 692.798 96.5 685.526C107.638 657.113 118.971 628.78 130.5 600.526C141.167 574.026 147.333 546.526 149 518.026C148.848 481.344 131.848 456.344 98 443.026C80.036 439.147 62.036 440.147 44 446.026C32.005 450.247 20.338 455.247 9 461.026C3.1214 462.486 0.1214 460.153 0 454.026C3.4004 428.983 13.567 407.15 30.5 388.526C36.864 381.827 43.531 375.494 50.5 369.526C49.158 356.036 53.991 345.203 65 337.026C69 334.693 73 332.359 77 330.026C77.608 328.795 77.941 327.462 78 326.026C77.323 319.876 76.823 313.709 76.5 307.526C58.952 302.666 42.452 295.499 27 286.026C14.632 275.714 13.799 264.548 24.5 252.526C34.667 244.359 44.833 236.193 55 228.026C62.617 221.293 68.117 213.126 71.5 203.526C82.303 163.048 99.969 126.048 124.5 92.5258C171.817 35.4498 232.651 4.78277 307 0.525773ZM306 25.5258C370.556 21.4418 428.556 38.6088 480 77.0258C522.219 113.282 547.385 159.115 555.5 214.526C561.789 258.42 562.955 302.42 559 346.526C558.518 367.289 563.185 386.789 573 405.026C572.667 405.526 572.333 406.026 572 406.526C548.558 411.536 525.224 410.369 502 403.026C479.488 395.826 458.821 385.159 440 371.026C425 357.359 410 343.693 395 330.026C353.298 295.347 305.632 272.68 252 262.026C186.047 246.764 119.714 244.097 53 254.026C58.788 248.303 65.121 243.303 72 239.026C78.021 234.003 83.688 228.67 89 223.026C182.441 210.514 270.107 227.514 352 274.026C363.393 275.305 367.559 270.471 364.5 259.526C358.551 254.246 352.051 249.746 345 246.026C267.606 206.014 185.606 190.681 99 200.026C109.05 164.091 125.55 131.591 148.5 102.526C190.345 55.3548 242.845 29.6878 306 25.5258ZM222 301.526C227.54 301.792 230.873 304.625 232 310.026C230.017 317.684 225.351 320.017 218 317.026C213.21 310.264 214.543 305.098 222 301.526ZM96 343.526C103.487 343.084 110.82 343.918 118 346.026C128.083 352.276 137.75 359.11 147 366.526C134.572 371.174 121.739 374.174 108.5 375.526C97.055 374.957 86.221 372.123 76 367.026C72.697 363.231 72.197 359.064 74.5 354.526C80.709 348.776 87.876 345.11 96 343.526ZM374 346.526C383.296 354.653 392.463 362.986 401.5 371.526C402.342 402.137 398.175 432.137 389 461.526C380.76 458.445 372.426 455.779 364 453.526C369.799 417.879 373.133 382.213 374 346.526ZM63 380.526C72.352 385.921 82.352 389.421 93 391.026C68.993 403.021 46.327 417.021 25 433.026C24.333 433.693 23.667 433.693 23 433.026C28.434 422.602 34.267 412.435 40.5 402.526C47.232 394.292 54.732 386.959 63 380.526ZM418 386.526C431.122 396.928 445.122 406.094 460 414.026C443.625 424.899 427.958 436.732 413 449.526C412.667 448.859 412.333 448.193 412 447.526C416.199 427.406 418.199 407.073 418 386.526ZM116 395.526C116.876 395.395 117.543 395.728 118 396.526C106.726 412.495 91.392 420.495 72 420.526C86.404 411.659 101.071 403.326 116 395.526ZM350 486.526C362.662 490.58 375.329 494.747 388 499.026C389.074 499.765 389.741 500.765 390 502.026C388.791 507.938 386.624 513.438 383.5 518.526C379.699 519.541 375.866 519.375 372 518.026C362.98 515.017 354.314 511.183 346 506.526C345.667 505.693 345.333 504.859 345 504.026C347.057 498.299 348.723 492.466 350 486.526ZM334 526.526C342.366 531.376 351.032 535.709 360 539.526C352.167 551.193 344.333 562.859 336.5 574.526C330.754 582.943 324.254 590.776 317 598.026C309.33 601.652 301.996 600.985 295 596.026C292.284 590.34 292.784 584.84 296.5 579.526C308.831 561.702 321.331 544.036 334 526.526Z" fill="black"/>
<path opacity="0.989" fill-rule="evenodd" clip-rule="evenodd" d="M220 283.526C241.194 283.719 252.861 294.385 255 315.526C251.029 339.666 237.029 349.833 213 346.026C194.415 337.961 187.915 324.127 193.5 304.526C198.715 292.849 207.549 285.849 220 283.526ZM222 301.526C214.543 305.098 213.21 310.264 218 317.026C225.351 320.017 230.017 317.684 232 310.026C230.873 304.625 227.54 301.792 222 301.526Z" fill="black"/>
</svg>
